<svg width="15" height="20" viewBox="0 0 15 20" fill="none" xmlns="http://www.w3.org/2000/svg">
<path d="M7.46576 0.5C5.60989 0.502245 3.83064 1.28939 2.51834 2.68874C1.20604 4.08809 0.467865 5.98538 0.465759 7.96436C0.465759 14.3515 6.8294 19.1753 7.10065 19.3772C7.20764 19.4571 7.33512 19.5 7.46576 19.5C7.5964 19.5 7.72387 19.4571 7.83087 19.3772C8.10212 19.1753 14.4658 14.3515 14.4658 7.96436C14.4637 5.98538 13.7255 4.08809 12.4132 2.68874C11.1009 1.28939 9.32163 0.502245 7.46576 0.5ZM7.46576 5.25005C7.9692 5.25005 8.46134 5.40924 8.87994 5.70749C9.29854 6.00574 9.62479 6.42966 9.81745 6.92564C10.0101 7.42161 10.0605 7.96737 9.9623 8.4939C9.86409 9.02042 9.62166 9.50407 9.26567 9.88367C8.90968 10.2633 8.45612 10.5218 7.96235 10.6265C7.46858 10.7313 6.95678 10.6775 6.49166 10.4721C6.02653 10.2666 5.62899 9.91872 5.34929 9.47235C5.06959 9.02598 4.9203 8.5012 4.9203 7.96436C4.9203 7.24448 5.18849 6.55408 5.66585 6.04505C6.14322 5.53602 6.79066 5.25005 7.46576 5.25005Z" fill="#EB5528"/>
</svg>
