<svg width="114" height="100" viewBox="0 0 114 100" fill="none" xmlns="http://www.w3.org/2000/svg">
<path d="M13.375 79.0625V64.6875H-0.5V0H85.25V14.375H99.625V43.125H96.5V17.5H16.5V76H63.6875V79.0625H13.375ZM13.375 61.5741V14.375H82.5V8.5V3H2.5V61.5741H13.375ZM27.75 64.6875V50.3125H34.9375V64.6875H27.75ZM42.125 64.6875V35.9375H49.3125V64.6875H42.125ZM56.5 64.6875V43.125H63.6875V64.6875H56.5ZM92.4375 50.3125C95.3949 50.3125 98.1838 50.874 100.804 51.9971C103.425 53.1201 105.708 54.6549 107.655 56.6016C109.601 58.5482 111.155 60.8504 112.315 63.5083C113.476 66.1662 114.037 68.9551 114 71.875C114 74.8698 113.438 77.6587 112.315 80.2417C111.192 82.8247 109.658 85.1082 107.711 87.0923C105.764 89.0763 103.462 90.6299 100.804 91.7529C98.1463 92.876 95.3574 93.4375 92.4375 93.4375C90.1914 93.4375 88.0015 93.1006 85.8677 92.4268C83.7339 91.7529 81.7686 90.7609 79.9717 89.4507L55.4331 113.933C54.7218 114.644 53.8796 115 52.9062 115C51.9329 115 51.0907 114.644 50.3794 113.933C49.6681 113.222 49.3125 112.38 49.3125 111.406C49.3125 110.433 49.6681 109.591 50.3794 108.879L74.8618 84.3408C73.5516 82.5439 72.5596 80.5786 71.8857 78.4448C71.2119 76.311 70.875 74.1211 70.875 71.875C70.875 68.9176 71.4365 66.1287 72.5596 63.5083C73.6826 60.8879 75.2174 58.6043 77.1641 56.6577C79.1107 54.7111 81.3942 53.1576 84.0146 51.9971C86.6351 50.8366 89.4427 50.2751 92.4375 50.3125ZM92.4375 86.25C94.4215 86.25 96.2746 85.8756 97.9966 85.127C99.7186 84.3783 101.253 83.3488 102.601 82.0386C103.949 80.7284 104.978 79.2122 105.689 77.4902C106.401 75.7682 106.775 73.8965 106.812 71.875C106.812 69.891 106.438 68.0379 105.689 66.3159C104.941 64.5939 103.911 63.0591 102.601 61.7114C101.291 60.3638 99.7747 59.3343 98.0527 58.623C96.3307 57.9118 94.459 57.5374 92.4375 57.5C90.4535 57.5 88.6004 57.8743 86.8784 58.623C85.1564 59.3717 83.6216 60.4012 82.2739 61.7114C80.9263 63.0216 79.8968 64.5378 79.1855 66.2598C78.4743 67.9818 78.0999 69.8535 78.0625 71.875C78.0625 73.859 78.4369 75.7121 79.1855 77.4341C79.9342 79.1561 80.9637 80.6909 82.2739 82.0386C83.5841 83.3862 85.1003 84.4157 86.8223 85.127C88.5443 85.8382 90.416 86.2126 92.4375 86.25Z" fill="#050505"/>
</svg>
